<?xml version="1.0" encoding="UTF-8"?>
<svg width="150px" height="128px" viewBox="0 0 150 128" version="1.1" xmlns="http://www.w3.org/2000/svg" xmlns:xlink="http://www.w3.org/1999/xlink">
    <title>ic_card_fall_down</title>
    <defs>
        <polygon id="path-1" points="0.344678971 0.407076923 78.6062745 0.407076923 78.6062745 118.153846 0.344678971 118.153846"></polygon>
        <polygon id="path-3" points="0 0.253427587 28.3204755 0.253427587 28.3204755 28.1169568 0 28.1169568"></polygon>
    </defs>
    <g id="ic_card_fall_down" stroke="none" stroke-width="1" fill="none" fill-rule="evenodd">
        <g id="Group-11" transform="translate(28.000000, 4.000000)">
            <g id="Group-3" transform="translate(15.570662, 0.457961)">
                <mask id="mask-2" fill="white">
                    <use xlink:href="#path-1"></use>
                </mask>
                <g id="Clip-2"></g>
                <path d="M67.5396282,56.7663231 C56.4802418,61.8677077 45.1206933,66.2057077 33.6045386,70.1274 C31.5695891,63.6460154 30.4132195,58.1744769 28.724575,50.3915538 C28.0231093,47.1589385 26.4831476,44.2540154 24.3055745,42.0820154 C30.6807552,32.7150923 37.0568681,23.3500154 43.4325149,13.9826308 C49.4091885,5.20555385 36.3241744,-5.04336923 30.3032222,3.79878462 C21.5817438,16.6143231 12.8551385,29.4321692 4.13179572,42.2500154 C3.78129595,42.7669385 3.49977751,43.2861692 3.27605426,43.8090923 C1.00572927,46.6549385 -0.204706782,50.2655538 0.587646427,53.9297077 C2.6225959,63.2744769 4.69250214,72.6566308 7.66056404,81.7641692 C8.75354538,85.1154 11.3133123,87.5846308 14.4104812,89.0278615 C14.6896692,89.2683231 14.9847042,89.5032462 15.3160943,89.7284769 C30.8313023,100.192938 46.9594188,109.668323 64.0705194,117.365862 C73.8612086,121.764785 80.2853287,106.513708 70.4923091,102.116631 C59.7279578,97.2843231 49.4189764,91.7052462 39.4157502,85.5963231 C51.051224,81.6400154 62.5244985,77.2715538 73.6976109,72.1184769 C83.4188526,67.6314 77.2939623,52.2635538 67.5396282,56.7663231" id="Fill-1" fill="#fff" mask="url(#mask-2)"></path>
            </g>
            <g id="Group-6" transform="translate(0.000000, 7.785331)">
                <mask id="mask-4" fill="white">
                    <use xlink:href="#path-3"></use>
                </mask>
                <g id="Clip-5"></g>
                <path d="M25.3051319,22.7725968 C30.1306407,16.7178991 29.0484271,7.95940179 22.889352,3.21584544 C16.7284149,-1.52633703 7.83378318,-0.461578533 3.01432549,5.59632487 C-1.8111833,11.6523964 -0.725711464,20.4072301 5.42963995,25.1526182 C11.5873187,29.8989224 20.4870706,28.8305002 25.3051319,22.7725968" id="Fill-4" fill="#fff" mask="url(#mask-4)"></path>
            </g>
            <path d="M47.9412704,111.058873 L29.5695068,102.222817 C29.1604736,102.02614 28.676946,102.133113 28.3775976,102.486172 L25.9051172,105.40562 C25.3996526,106.002365 25.6688376,106.948812 26.4032694,107.156521 L47.2475134,113.073129 C48.4604455,113.417073 49.0838214,111.608608 47.9412704,111.058873" id="Fill-7" fill="#fff"></path>
            <path d="M45.8114305,116.394193 L19.3855845,112.212832 C18.909018,112.13717 18.4447196,112.411447 18.2564522,112.879361 L16.571955,117.061219 C16.2756344,117.795944 16.7871176,118.611807 17.5444336,118.611807 L45.654777,118.611807 C46.9627396,118.611807 47.1052377,116.598781 45.8114305,116.394193" id="Fill-9" fill="#fff"></path>
        </g>
    </g>
</svg>